<?xml version="1.0" encoding="UTF-8"?>
<svg id="Layer_1" xmlns="http://www.w3.org/2000/svg" version="1.1" viewBox="0 0 40 40">
  <!-- Generator: Adobe Illustrator 29.4.0, SVG Export Plug-In . SVG Version: 2.1.0 Build 152)  -->
  <defs>
    <style>
      .st0 {
        fill: #c3b384;
      }
    </style>
  </defs>
  <path class="st0" d="M13.42,1.01c.14.13.55.7.64.89.61,1.24,1.99,7.64,1.95,9.01-.06,2.03-3.19,2.01-4.29,3.26-.5,1.43,2.18,5.84,3.05,7.11,1.63,2.38,5.48,6.36,8.1,7.51s2.54-2.76,4.56-3.22c1.26-.29,4.8,1.31,6.09,1.9,1.05.48,4.08,1.75,4.33,2.85.76,3.36-2.59,7.72-5.66,8.8-10.17,3.58-23-11.68-27.24-19.52C1.81,13.81-.47,4.18,7.38,1.04c1.51-.6,4.78-1.19,6.04-.03Z"/>
</svg>